<?xml version="1.0" encoding="utf-8"?>
<!-- Generator: Adobe Illustrator 24.0.3, SVG Export Plug-In . SVG Version: 6.00 Build 0)  -->
<svg version="1.1" id="Layer_1" xmlns="http://www.w3.org/2000/svg" xmlns:xlink="http://www.w3.org/1999/xlink" x="0px" y="0px"
	 viewBox="0 0 612 792" enable-background="new 0 0 612 792" xml:space="preserve">
<path d="M255.38,284.07c0,0-0.9-14.22,2.1-22.03l4.36-10.2c6.45-8.62,18.63-23.99,56.04-8.8c0,0,56.4-6.43,48.62,43.37
	c0,0,35.85-22.06,62.86,19.76c0,0,8.47,19.79,7.78,38.99c0,0,1.98,42.2-47.12,42.11c0,0,6.72,6.2,12.97,12.44
	c0,0,31.35,31.93-5.65,61.49c0,0-16.77,12.7-36.27,15.32c0,0-29.14,10.1-48.82-29.27c0,0-11.8,24.77-41.03,27.09
	c0,0-34.85-2.18-46.35-39.09c0,0-7.2-27.85,12.96-48.01c0,0-29.57,1.84-41.82-19.88c0,0-26.48-69.59,34.14-80.94
	C230.16,286.4,237.13,283.15,255.38,284.07z"/>
</svg>
